<svg width="265" height="32" viewBox="0 0 265 32" fill="none" xmlns="http://www.w3.org/2000/svg">
<g clip-path="url(#clip0)">
<path d="M156.028 29.3489H144V27.0984H156.028V29.3489ZM163.962 27.334C161.943 27.334 160.303 26.7645 159.044 25.6256C157.794 24.4786 157.168 22.9547 157.168 21.0538V20.7003C157.168 19.4278 157.439 18.2927 157.982 17.2951C158.533 16.2896 159.301 15.5081 160.29 14.9503C161.278 14.3926 162.379 14.1137 163.595 14.1137C165.527 14.1137 167.018 14.6675 168.067 15.7751C169.126 16.8826 169.654 18.4498 169.654 20.4765V21.6311H160.381C160.478 22.6838 160.867 23.5164 161.549 24.1291C162.239 24.7418 163.106 25.0481 164.145 25.0481C165.606 25.0481 166.796 24.5179 167.713 23.4575L169.431 24.9304C168.863 25.6923 168.103 26.2853 167.149 26.7095C166.205 27.1258 165.142 27.334 163.962 27.334ZM163.582 16.4114C162.707 16.4114 161.999 16.6863 161.457 17.2362C160.924 17.786 160.583 18.5519 160.434 19.5338H166.507V19.3217C166.436 18.3634 166.152 17.6408 165.654 17.1537C165.156 16.6588 164.465 16.4114 163.582 16.4114ZM177.235 18.5441L179.937 14.3494H183.478L179.137 20.6296L183.622 27.0984H180.107L177.274 22.7388L174.454 27.0984H170.913L175.399 20.6296L171.071 14.3494H174.586L177.235 18.5441ZM198.076 20.8535C198.076 22.8251 197.578 24.4001 196.58 25.5784C195.583 26.7488 194.246 27.334 192.567 27.334C191.01 27.334 189.765 26.8744 188.829 25.9554V32H185.643V14.3494H188.579L188.711 15.6455C189.647 14.6244 190.918 14.1137 192.528 14.1137C194.259 14.1137 195.614 14.6951 196.594 15.8576C197.581 17.0123 198.076 18.6187 198.076 20.6768V20.8535ZM194.902 20.6061C194.902 19.3335 194.617 18.3241 194.049 17.5778C193.489 16.8317 192.684 16.4585 191.636 16.4585C190.333 16.4585 189.397 16.9416 188.829 17.9078V23.5635C189.406 24.5533 190.351 25.0481 191.662 25.0481C192.677 25.0481 193.468 24.6829 194.036 23.9524C194.613 23.2139 194.902 22.0985 194.902 20.6061ZM204.174 27.0984H200.987V9H204.174V27.0984ZM207.059 20.6061C207.059 19.3571 207.335 18.2338 207.885 17.2362C208.437 16.2307 209.21 15.4609 210.207 14.9267C211.204 14.3848 212.35 14.1137 213.643 14.1137C215.558 14.1137 217.111 14.6675 218.299 15.7751C219.498 16.8826 220.145 18.3516 220.241 20.1819L220.253 20.8535C220.253 22.1104 219.982 23.2336 219.441 24.2233C218.907 25.2131 218.138 25.979 217.132 26.521C216.136 27.063 214.981 27.334 213.669 27.334C211.667 27.334 210.063 26.737 208.857 25.543C207.658 24.3412 207.059 22.7427 207.059 20.7474V20.6061ZM210.247 20.8535C210.247 22.1654 210.548 23.1943 211.151 23.9406C211.755 24.679 212.595 25.0481 213.669 25.0481C214.745 25.0481 215.581 24.6711 216.175 23.917C216.778 23.1629 217.079 22.0593 217.079 20.6061C217.079 19.3178 216.769 18.2966 216.148 17.5425C215.536 16.7884 214.701 16.4114 213.643 16.4114C212.603 16.4114 211.777 16.7845 211.164 17.5308C210.552 18.2692 210.247 19.3767 210.247 20.8535ZM230.379 16.9652C229.959 16.9023 229.526 16.8709 229.08 16.8709C227.62 16.8709 226.636 17.3736 226.129 18.3791V27.0984H222.943V14.3494H225.985L226.064 15.7751C226.833 14.6675 227.9 14.1137 229.264 14.1137C229.718 14.1137 230.094 14.1687 230.392 14.2787L230.379 16.9652ZM238.38 27.334C236.359 27.334 234.72 26.7645 233.461 25.6256C232.211 24.4786 231.585 22.9547 231.585 21.0538V20.7003C231.585 19.4278 231.856 18.2927 232.399 17.2951C232.949 16.2896 233.719 15.5081 234.706 14.9503C235.695 14.3926 236.797 14.1137 238.011 14.1137C239.944 14.1137 241.435 14.6675 242.485 15.7751C243.542 16.8826 244.072 18.4498 244.072 20.4765V21.6311H234.798C234.894 22.6838 235.284 23.5164 235.965 24.1291C236.657 24.7418 237.522 25.0481 238.563 25.0481C240.023 25.0481 241.212 24.5179 242.13 23.4575L243.848 24.9304C243.28 25.6923 242.519 26.2853 241.566 26.7095C240.621 27.1258 239.559 27.334 238.38 27.334ZM237.999 16.4114C237.125 16.4114 236.417 16.6863 235.874 17.2362C235.341 17.786 235 18.5519 234.851 19.5338H240.923V19.3217C240.854 18.3634 240.57 17.6408 240.071 17.1537C239.573 16.6588 238.882 16.4114 237.999 16.4114ZM253.987 16.9652C253.567 16.9023 253.134 16.8709 252.688 16.8709C251.228 16.8709 250.244 17.3736 249.737 18.3791V27.0984H246.55V14.3494H249.593L249.671 15.7751C250.441 14.6675 251.508 14.1137 252.872 14.1137C253.326 14.1137 253.702 14.1687 254 14.2787L253.987 16.9652Z" fill="#A8A8B3"/>
<path fill-rule="evenodd" clip-rule="evenodd" d="M0 16C0 7.16004 7.60755 0 17.0001 0C26.3926 0 34.0001 7.16004 34 16C34 24.8321 26.3925 32 17.0001 32C7.60755 32 0 24.8321 0 16ZM6.79999 25.6001L20.7231 19.5041L27.2001 6.39999L13.277 12.496L6.79999 25.6001ZM18.8701 16C18.8701 16.9681 18.037 17.7601 17.0001 17.7601C15.9716 17.7601 15.1299 16.9681 15.1299 16C15.1299 15.0319 15.9714 14.2399 17.0001 14.2399C18.0371 14.2399 18.8701 15.0319 18.8701 16Z" fill="#121214"/>
<path d="M44.5742 26.5039C45.1992 26.5039 45.707 26.332 46.0977 25.9883C46.4883 25.6445 46.6914 25.1875 46.707 24.6172H49.8828C49.875 25.4766 49.6406 26.2656 49.1797 26.9844C48.7188 27.6953 48.0859 28.25 47.2812 28.6484C46.4844 29.0391 45.6016 29.2344 44.6328 29.2344C42.8203 29.2344 41.3906 28.6602 40.3438 27.5117C39.2969 26.3555 38.7734 24.7617 38.7734 22.7305V22.5078C38.7734 20.5547 39.293 18.9961 40.332 17.832C41.3711 16.668 42.7969 16.0859 44.6094 16.0859C46.1953 16.0859 47.4648 16.5391 48.418 17.4453C49.3789 18.3438 49.8672 19.543 49.8828 21.043H46.707C46.6914 20.3867 46.4883 19.8555 46.0977 19.4492C45.707 19.0352 45.1914 18.8281 44.5508 18.8281C43.7617 18.8281 43.1641 19.1172 42.7578 19.6953C42.3594 20.2656 42.1602 21.1953 42.1602 22.4844V22.8359C42.1602 24.1406 42.3594 25.0781 42.7578 25.6484C43.1562 26.2188 43.7617 26.5039 44.5742 26.5039ZM51.2891 22.543C51.2891 21.2852 51.5312 20.1641 52.0156 19.1797C52.5 18.1953 53.1953 17.4336 54.1016 16.8945C55.0156 16.3555 56.0742 16.0859 57.2773 16.0859C58.9883 16.0859 60.3828 16.6094 61.4609 17.6562C62.5469 18.7031 63.1523 20.125 63.2773 21.9219L63.3008 22.7891C63.3008 24.7344 62.7578 26.2969 61.6719 27.4766C60.5859 28.6484 59.1289 29.2344 57.3008 29.2344C55.4727 29.2344 54.0117 28.6484 52.918 27.4766C51.832 26.3047 51.2891 24.7109 51.2891 22.6953V22.543ZM54.6758 22.7891C54.6758 23.9922 54.9023 24.9141 55.3555 25.5547C55.8086 26.1875 56.457 26.5039 57.3008 26.5039C58.1211 26.5039 58.7617 26.1914 59.2227 25.5664C59.6836 24.9336 59.9141 23.9258 59.9141 22.543C59.9141 21.3633 59.6836 20.4492 59.2227 19.8008C58.7617 19.1523 58.1133 18.8281 57.2773 18.8281C56.4492 18.8281 55.8086 19.1523 55.3555 19.8008C54.9023 20.4414 54.6758 21.4375 54.6758 22.7891ZM68.5039 16.3203L68.6094 17.7852C69.5156 16.6523 70.7305 16.0859 72.2539 16.0859C73.5977 16.0859 74.5977 16.4805 75.2539 17.2695C75.9102 18.0586 76.2461 19.2383 76.2617 20.8086V29H72.875V20.8906C72.875 20.1719 72.7188 19.6523 72.4062 19.332C72.0938 19.0039 71.5742 18.8398 70.8477 18.8398C69.8945 18.8398 69.1797 19.2461 68.7031 20.0586V29H65.3164V16.3203H68.5039ZM82.8945 13.2031V16.3203H85.0625V18.8047H82.8945V25.1328C82.8945 25.6016 82.9844 25.9375 83.1641 26.1406C83.3438 26.3438 83.6875 26.4453 84.1953 26.4453C84.5703 26.4453 84.9023 26.418 85.1914 26.3633V28.9297C84.5273 29.1328 83.8438 29.2344 83.1406 29.2344C80.7656 29.2344 79.5547 28.0352 79.5078 25.6367V18.8047H77.6562V16.3203H79.5078V13.2031H82.8945ZM94.0742 19.4961C93.6133 19.4336 93.207 19.4023 92.8555 19.4023C91.5742 19.4023 90.7344 19.8359 90.3359 20.7031V29H86.9492V16.3203H90.1484L90.2422 17.832C90.9219 16.668 91.8633 16.0859 93.0664 16.0859C93.4414 16.0859 93.793 16.1367 94.1211 16.2383L94.0742 19.4961ZM94.7656 22.543C94.7656 21.2852 95.0078 20.1641 95.4922 19.1797C95.9766 18.1953 96.6719 17.4336 97.5781 16.8945C98.4922 16.3555 99.5508 16.0859 100.754 16.0859C102.465 16.0859 103.859 16.6094 104.938 17.6562C106.023 18.7031 106.629 20.125 106.754 21.9219L106.777 22.7891C106.777 24.7344 106.234 26.2969 105.148 27.4766C104.062 28.6484 102.605 29.2344 100.777 29.2344C98.9492 29.2344 97.4883 28.6484 96.3945 27.4766C95.3086 26.3047 94.7656 24.7109 94.7656 22.6953V22.543ZM98.1523 22.7891C98.1523 23.9922 98.3789 24.9141 98.832 25.5547C99.2852 26.1875 99.9336 26.5039 100.777 26.5039C101.598 26.5039 102.238 26.1914 102.699 25.5664C103.16 24.9336 103.391 23.9258 103.391 22.543C103.391 21.3633 103.16 20.4492 102.699 19.8008C102.238 19.1523 101.59 18.8281 100.754 18.8281C99.9258 18.8281 99.2852 19.1523 98.832 19.8008C98.3789 20.4414 98.1523 21.4375 98.1523 22.7891ZM112.438 29H109.039V11H112.438V29ZM118.812 29H115.414V11H118.812V29ZM127.449 29.2344C125.59 29.2344 124.074 28.6641 122.902 27.5234C121.738 26.3828 121.156 24.8633 121.156 22.9648V22.6367C121.156 21.3633 121.402 20.2266 121.895 19.2266C122.387 18.2188 123.082 17.4453 123.98 16.9062C124.887 16.3594 125.918 16.0859 127.074 16.0859C128.809 16.0859 130.172 16.6328 131.164 17.7266C132.164 18.8203 132.664 20.3711 132.664 22.3789V23.7617H124.59C124.699 24.5898 125.027 25.2539 125.574 25.7539C126.129 26.2539 126.828 26.5039 127.672 26.5039C128.977 26.5039 129.996 26.0312 130.73 25.0859L132.395 26.9492C131.887 27.668 131.199 28.2305 130.332 28.6367C129.465 29.0352 128.504 29.2344 127.449 29.2344ZM127.062 18.8281C126.391 18.8281 125.844 19.0547 125.422 19.5078C125.008 19.9609 124.742 20.6094 124.625 21.4531H129.336V21.1836C129.32 20.4336 129.117 19.8555 128.727 19.4492C128.336 19.0352 127.781 18.8281 127.062 18.8281ZM141.723 19.4961C141.262 19.4336 140.855 19.4023 140.504 19.4023C139.223 19.4023 138.383 19.8359 137.984 20.7031V29H134.598V16.3203H137.797L137.891 17.832C138.57 16.668 139.512 16.0859 140.715 16.0859C141.09 16.0859 141.441 16.1367 141.77 16.2383L141.723 19.4961Z" fill="#737380"/>
</g>
<defs>
<clipPath id="clip0">
<rect width="265" height="32" fill="white"/>
</clipPath>
</defs>
</svg>
