<svg width="215" height="32" viewBox="0 0 215 32" fill="none" xmlns="http://www.w3.org/2000/svg">
<g clip-path="url(#clip0)">
<path d="M156.747 29.2383H146V27H156.747V29.2383ZM163.836 27.2344C162.032 27.2344 160.567 26.668 159.442 25.5352C158.325 24.3945 157.766 22.8789 157.766 20.9883V20.6367C157.766 19.3711 158.008 18.2422 158.493 17.25C158.985 16.25 159.672 15.4727 160.555 14.918C161.438 14.3633 162.422 14.0859 163.508 14.0859C165.235 14.0859 166.567 14.6367 167.504 15.7383C168.45 16.8398 168.922 18.3984 168.922 20.4141V21.5625H160.637C160.723 22.6094 161.071 23.4375 161.68 24.0469C162.297 24.6562 163.071 24.9609 164 24.9609C165.305 24.9609 166.368 24.4336 167.188 23.3789L168.723 24.8438C168.215 25.6016 167.536 26.1914 166.684 26.6133C165.84 27.0273 164.891 27.2344 163.836 27.2344ZM163.497 16.3711C162.715 16.3711 162.082 16.6445 161.598 17.1914C161.122 17.7383 160.817 18.5 160.684 19.4766H166.11V19.2656C166.047 18.3125 165.793 17.5938 165.348 17.1094C164.903 16.6172 164.286 16.3711 163.497 16.3711ZM175.696 18.4922L178.11 14.3203H181.274L177.395 20.5664L181.403 27H178.262L175.731 22.6641L173.211 27H170.047L174.055 20.5664L170.188 14.3203H173.329L175.696 18.4922ZM194.317 20.7891C194.317 22.75 193.872 24.3164 192.981 25.4883C192.09 26.6523 190.895 27.2344 189.395 27.2344C188.004 27.2344 186.891 26.7773 186.055 25.8633V31.875H183.208V14.3203H185.832L185.95 15.6094C186.786 14.5938 187.922 14.0859 189.36 14.0859C190.907 14.0859 192.118 14.6641 192.993 15.8203C193.875 16.9688 194.317 18.5664 194.317 20.6133V20.7891ZM191.481 20.543C191.481 19.2773 191.227 18.2734 190.719 17.5312C190.219 16.7891 189.5 16.418 188.563 16.418C187.399 16.418 186.563 16.8984 186.055 17.8594V23.4844C186.571 24.4688 187.415 24.9609 188.586 24.9609C189.493 24.9609 190.2 24.5977 190.708 23.8711C191.223 23.1367 191.481 22.0273 191.481 20.543ZM199.766 27H196.918V9H199.766V27ZM202.344 20.543C202.344 19.3008 202.59 18.1836 203.082 17.1914C203.575 16.1914 204.266 15.4258 205.157 14.8945C206.047 14.3555 207.071 14.0859 208.227 14.0859C209.938 14.0859 211.325 14.6367 212.387 15.7383C213.458 16.8398 214.036 18.3008 214.122 20.1211L214.133 20.7891C214.133 22.0391 213.891 23.1562 213.407 24.1406C212.93 25.125 212.243 25.8867 211.344 26.4258C210.454 26.9648 209.422 27.2344 208.25 27.2344C206.461 27.2344 205.028 26.6406 203.95 25.4531C202.879 24.2578 202.344 22.668 202.344 20.6836V20.543ZM205.192 20.7891C205.192 22.0938 205.461 23.1172 206 23.8594C206.54 24.5938 207.29 24.9609 208.25 24.9609C209.211 24.9609 209.958 24.5859 210.489 23.8359C211.028 23.0859 211.297 21.9883 211.297 20.543C211.297 19.2617 211.02 18.2461 210.465 17.4961C209.918 16.7461 209.172 16.3711 208.227 16.3711C207.297 16.3711 206.559 16.7422 206.012 17.4844C205.465 18.2188 205.192 19.3203 205.192 20.7891ZM223.18 16.9219C222.805 16.8594 222.418 16.8281 222.02 16.8281C220.715 16.8281 219.836 17.3281 219.383 18.3281V27H216.536V14.3203H219.254L219.325 15.7383C220.012 14.6367 220.965 14.0859 222.184 14.0859C222.59 14.0859 222.926 14.1406 223.192 14.25L223.18 16.9219ZM230.329 27.2344C228.524 27.2344 227.059 26.668 225.934 25.5352C224.817 24.3945 224.258 22.8789 224.258 20.9883V20.6367C224.258 19.3711 224.5 18.2422 224.985 17.25C225.477 16.25 226.165 15.4727 227.047 14.918C227.93 14.3633 228.915 14.0859 230 14.0859C231.727 14.0859 233.059 14.6367 233.997 15.7383C234.942 16.8398 235.415 18.3984 235.415 20.4141V21.5625H227.129C227.215 22.6094 227.563 23.4375 228.172 24.0469C228.79 24.6562 229.563 24.9609 230.493 24.9609C231.797 24.9609 232.86 24.4336 233.68 23.3789L235.215 24.8438C234.708 25.6016 234.028 26.1914 233.176 26.6133C232.332 27.0273 231.383 27.2344 230.329 27.2344ZM229.989 16.3711C229.208 16.3711 228.575 16.6445 228.09 17.1914C227.614 17.7383 227.309 18.5 227.176 19.4766H232.602V19.2656C232.54 18.3125 232.286 17.5938 231.84 17.1094C231.395 16.6172 230.778 16.3711 229.989 16.3711ZM244.274 16.9219C243.899 16.8594 243.512 16.8281 243.114 16.8281C241.809 16.8281 240.93 17.3281 240.477 18.3281V27H237.629V14.3203H240.348L240.418 15.7383C241.106 14.6367 242.059 14.0859 243.278 14.0859C243.684 14.0859 244.02 14.1406 244.286 14.25L244.274 16.9219Z" fill="#A8A8B3"/>
<path fill-rule="evenodd" clip-rule="evenodd" d="M0 16C0 7.16002 7.16002 0 16 0C24.84 0 32 7.16002 31.9999 16C31.9999 24.832 24.8399 31.9999 16 31.9999C7.16002 31.9999 0 24.832 0 16ZM6.39997 25.6L19.504 19.504L25.6 6.39997L12.496 12.496L6.39997 25.6ZM17.76 16C17.76 16.968 16.9759 17.76 16 17.76C15.032 17.76 14.2399 16.968 14.2399 16C14.2399 15.0319 15.0319 14.2399 16 14.2399C16.976 14.2399 17.76 15.0319 17.76 16Z" fill="#121214"/>
<path d="M47.5742 25.5039C48.1992 25.5039 48.707 25.332 49.0977 24.9883C49.4883 24.6445 49.6914 24.1875 49.707 23.6172H52.8828C52.875 24.4766 52.6406 25.2656 52.1797 25.9844C51.7188 26.6953 51.0859 27.25 50.2812 27.6484C49.4844 28.0391 48.6016 28.2344 47.6328 28.2344C45.8203 28.2344 44.3906 27.6602 43.3438 26.5117C42.2969 25.3555 41.7734 23.7617 41.7734 21.7305V21.5078C41.7734 19.5547 42.293 17.9961 43.332 16.832C44.3711 15.668 45.7969 15.0859 47.6094 15.0859C49.1953 15.0859 50.4648 15.5391 51.418 16.4453C52.3789 17.3438 52.8672 18.543 52.8828 20.043H49.707C49.6914 19.3867 49.4883 18.8555 49.0977 18.4492C48.707 18.0352 48.1914 17.8281 47.5508 17.8281C46.7617 17.8281 46.1641 18.1172 45.7578 18.6953C45.3594 19.2656 45.1602 20.1953 45.1602 21.4844V21.8359C45.1602 23.1406 45.3594 24.0781 45.7578 24.6484C46.1562 25.2188 46.7617 25.5039 47.5742 25.5039ZM54.2891 21.543C54.2891 20.2852 54.5312 19.1641 55.0156 18.1797C55.5 17.1953 56.1953 16.4336 57.1016 15.8945C58.0156 15.3555 59.0742 15.0859 60.2773 15.0859C61.9883 15.0859 63.3828 15.6094 64.4609 16.6562C65.5469 17.7031 66.1523 19.125 66.2773 20.9219L66.3008 21.7891C66.3008 23.7344 65.7578 25.2969 64.6719 26.4766C63.5859 27.6484 62.1289 28.2344 60.3008 28.2344C58.4727 28.2344 57.0117 27.6484 55.918 26.4766C54.832 25.3047 54.2891 23.7109 54.2891 21.6953V21.543ZM57.6758 21.7891C57.6758 22.9922 57.9023 23.9141 58.3555 24.5547C58.8086 25.1875 59.457 25.5039 60.3008 25.5039C61.1211 25.5039 61.7617 25.1914 62.2227 24.5664C62.6836 23.9336 62.9141 22.9258 62.9141 21.543C62.9141 20.3633 62.6836 19.4492 62.2227 18.8008C61.7617 18.1523 61.1133 17.8281 60.2773 17.8281C59.4492 17.8281 58.8086 18.1523 58.3555 18.8008C57.9023 19.4414 57.6758 20.4375 57.6758 21.7891ZM71.5039 15.3203L71.6094 16.7852C72.5156 15.6523 73.7305 15.0859 75.2539 15.0859C76.5977 15.0859 77.5977 15.4805 78.2539 16.2695C78.9102 17.0586 79.2461 18.2383 79.2617 19.8086V28H75.875V19.8906C75.875 19.1719 75.7188 18.6523 75.4062 18.332C75.0938 18.0039 74.5742 17.8398 73.8477 17.8398C72.8945 17.8398 72.1797 18.2461 71.7031 19.0586V28H68.3164V15.3203H71.5039ZM85.8945 12.2031V15.3203H88.0625V17.8047H85.8945V24.1328C85.8945 24.6016 85.9844 24.9375 86.1641 25.1406C86.3438 25.3438 86.6875 25.4453 87.1953 25.4453C87.5703 25.4453 87.9023 25.418 88.1914 25.3633V27.9297C87.5273 28.1328 86.8438 28.2344 86.1406 28.2344C83.7656 28.2344 82.5547 27.0352 82.5078 24.6367V17.8047H80.6562V15.3203H82.5078V12.2031H85.8945ZM97.0742 18.4961C96.6133 18.4336 96.207 18.4023 95.8555 18.4023C94.5742 18.4023 93.7344 18.8359 93.3359 19.7031V28H89.9492V15.3203H93.1484L93.2422 16.832C93.9219 15.668 94.8633 15.0859 96.0664 15.0859C96.4414 15.0859 96.793 15.1367 97.1211 15.2383L97.0742 18.4961ZM97.7656 21.543C97.7656 20.2852 98.0078 19.1641 98.4922 18.1797C98.9766 17.1953 99.6719 16.4336 100.578 15.8945C101.492 15.3555 102.551 15.0859 103.754 15.0859C105.465 15.0859 106.859 15.6094 107.938 16.6562C109.023 17.7031 109.629 19.125 109.754 20.9219L109.777 21.7891C109.777 23.7344 109.234 25.2969 108.148 26.4766C107.062 27.6484 105.605 28.2344 103.777 28.2344C101.949 28.2344 100.488 27.6484 99.3945 26.4766C98.3086 25.3047 97.7656 23.7109 97.7656 21.6953V21.543ZM101.152 21.7891C101.152 22.9922 101.379 23.9141 101.832 24.5547C102.285 25.1875 102.934 25.5039 103.777 25.5039C104.598 25.5039 105.238 25.1914 105.699 24.5664C106.16 23.9336 106.391 22.9258 106.391 21.543C106.391 20.3633 106.16 19.4492 105.699 18.8008C105.238 18.1523 104.59 17.8281 103.754 17.8281C102.926 17.8281 102.285 18.1523 101.832 18.8008C101.379 19.4414 101.152 20.4375 101.152 21.7891ZM115.438 28H112.039V10H115.438V28ZM121.812 28H118.414V10H121.812V28ZM130.449 28.2344C128.59 28.2344 127.074 27.6641 125.902 26.5234C124.738 25.3828 124.156 23.8633 124.156 21.9648V21.6367C124.156 20.3633 124.402 19.2266 124.895 18.2266C125.387 17.2188 126.082 16.4453 126.98 15.9062C127.887 15.3594 128.918 15.0859 130.074 15.0859C131.809 15.0859 133.172 15.6328 134.164 16.7266C135.164 17.8203 135.664 19.3711 135.664 21.3789V22.7617H127.59C127.699 23.5898 128.027 24.2539 128.574 24.7539C129.129 25.2539 129.828 25.5039 130.672 25.5039C131.977 25.5039 132.996 25.0312 133.73 24.0859L135.395 25.9492C134.887 26.668 134.199 27.2305 133.332 27.6367C132.465 28.0352 131.504 28.2344 130.449 28.2344ZM130.062 17.8281C129.391 17.8281 128.844 18.0547 128.422 18.5078C128.008 18.9609 127.742 19.6094 127.625 20.4531H132.336V20.1836C132.32 19.4336 132.117 18.8555 131.727 18.4492C131.336 18.0352 130.781 17.8281 130.062 17.8281ZM144.723 18.4961C144.262 18.4336 143.855 18.4023 143.504 18.4023C142.223 18.4023 141.383 18.8359 140.984 19.7031V28H137.598V15.3203H140.797L140.891 16.832C141.57 15.668 142.512 15.0859 143.715 15.0859C144.09 15.0859 144.441 15.1367 144.77 15.2383L144.723 18.4961Z" fill="#737380"/>
</g>
<defs>
<clipPath id="clip0">
<rect width="215" height="32" fill="white"/>
</clipPath>
</defs>
</svg>
