<?xml version="1.0"?>
<svg xmlns="http://www.w3.org/2000/svg" viewBox="0 0 512 512" width="512" height="512"><g id="solid"><path d="M136.993,408.062l46.511,5.82A277.669,277.669,0,0,0,217.71,416h.64a268.976,268.976,0,0,0,72.066-9.837l9.636-2.677a58.943,58.943,0,0,1-27.641-32.955,8,8,0,0,1,15.178-5.062,42.826,42.826,0,0,0,26.942,26.942l11.536,3.848,66.656-18.538,6.725-53.807-19.1-12.738A143.373,143.373,0,0,1,318.47,215.5a102.166,102.166,0,0,0-79.7-83.158l-23.619,47.238a8,8,0,1,1-14.31-7.156l26.243-52.486c.013-.028.027-.055.041-.083l13.3-26.607-56.6,17.687a68.421,68.421,0,0,0-23.238,12.58,7.987,7.987,0,0,1-1.044.882A67.879,67.879,0,0,0,136,176a8,8,0,0,1-16,0,83.977,83.977,0,0,1,17.312-51.251l-60-3.873A224.054,224.054,0,0,0,97.608,414.392a228.163,228.163,0,0,0,18.7,16.728l13.038-19.558A8.018,8.018,0,0,1,136.993,408.062ZM256,224a24,24,0,1,1-24,24A24,24,0,0,1,256,224Z"/><path d="M414.392,97.608a224,224,0,0,0-316.784,0q-3.945,3.947-7.668,8.05l62.3,4.021a84.6,84.6,0,0,1,26.823-14.018l74.548-23.3a8,8,0,0,1,9.542,11.214L246.134,117.62a118.667,118.667,0,0,1,34.359,14.59A98.025,98.025,0,0,1,349.57,104H376a8,8,0,0,1,7.311,11.249l-22.25,50.07a44.986,44.986,0,0,1-32.553,25.863,119.312,119.312,0,0,1,5.744,21.684,127.374,127.374,0,0,0,54.968,85l23.218,15.48a8,8,0,0,1,3.5,7.648l-8,64a8,8,0,0,1-5.794,6.715L328,412.327c-.069.02-.14.038-.21.056L294.7,421.578A284.953,284.953,0,0,1,218.35,432h-.64a293.75,293.75,0,0,1-36.189-2.241l-41.608-5.207-10.754,16.131A224.024,224.024,0,0,0,414.392,97.608Z"/><path d="M346.439,158.821,363.69,120H349.57a82.09,82.09,0,0,0-55.918,21.784,117.2,117.2,0,0,1,27.967,34.156A28.947,28.947,0,0,0,346.439,158.821Z"/></g></svg>
