<svg width="449" height="449" viewBox="0 0 449 449" fill="none" xmlns="http://www.w3.org/2000/svg">
<path d="M105.993 376.062L152.504 381.882C163.852 383.291 175.275 383.999 186.71 384H187.35C211.707 383.999 235.95 380.69 259.416 374.163L269.052 371.486C256.016 364.375 246.145 352.605 241.411 338.531C240.75 336.521 240.912 334.331 241.862 332.44C242.812 330.549 244.472 329.112 246.48 328.442C248.487 327.773 250.678 327.926 252.572 328.868C254.467 329.81 255.911 331.464 256.589 333.469C258.696 339.734 262.225 345.427 266.899 350.101C271.573 354.775 277.266 358.304 283.531 360.411L295.067 364.259L361.723 345.721L368.448 291.914L349.348 279.176C333.043 268.304 319.139 254.205 308.496 237.749C297.854 221.293 290.698 202.83 287.47 183.5C284.089 163.231 274.674 144.454 260.456 129.618C246.238 114.783 227.877 104.58 207.77 100.342L184.151 147.58C183.686 148.528 183.038 149.374 182.245 150.071C181.451 150.767 180.527 151.3 179.527 151.637C178.527 151.975 177.469 152.111 176.416 152.039C175.363 151.966 174.334 151.685 173.39 151.213C172.446 150.741 171.604 150.086 170.914 149.287C170.224 148.488 169.699 147.56 169.369 146.557C169.039 145.554 168.911 144.496 168.992 143.443C169.073 142.391 169.361 141.364 169.841 140.424L196.084 87.9378C196.097 87.9098 196.111 87.8828 196.125 87.8548L209.425 61.2478L152.825 78.9348C144.335 81.5783 136.442 85.8513 129.587 91.5148C129.265 91.8381 128.916 92.1332 128.543 92.3968C121.129 98.7915 115.187 106.714 111.123 115.621C107.059 124.529 104.971 134.209 105 144C105 146.122 104.157 148.156 102.657 149.657C101.157 151.157 99.1217 152 97 152C94.8783 152 92.8434 151.157 91.3431 149.657C89.8428 148.156 89 146.122 89 144C88.9596 125.474 95.0462 107.455 106.312 92.7488L46.312 88.8758C13.7067 132.013 -2.19803 185.487 1.53213 239.432C5.2623 293.377 28.3756 344.153 66.608 382.392C72.5298 388.307 78.7726 393.891 85.308 399.12L98.346 379.562C99.1715 378.328 100.324 377.347 101.674 376.729C103.024 376.111 104.519 375.88 105.993 376.062V376.062ZM225 192C229.747 192 234.387 193.407 238.334 196.045C242.28 198.682 245.357 202.43 247.173 206.815C248.99 211.201 249.465 216.026 248.539 220.682C247.613 225.338 245.327 229.614 241.971 232.97C238.614 236.327 234.338 238.613 229.682 239.539C225.027 240.465 220.201 239.989 215.816 238.173C211.43 236.356 207.682 233.28 205.045 229.333C202.408 225.387 201 220.747 201 216C201 209.635 203.529 203.53 208.029 199.029C212.53 194.528 218.635 192 225 192V192Z" fill="#CDCDCD" fill-opacity="0.38"/>
<path d="M383.392 65.6079C362.592 44.8076 337.898 28.3078 310.721 17.0508C283.544 5.7937 254.416 -0.000244141 225 -0.000244141C195.584 -0.000244141 166.456 5.7937 139.279 17.0508C112.102 28.3078 87.4083 44.8076 66.608 65.6079C63.978 68.2393 61.422 70.9226 58.94 73.6579L121.24 77.6789C129.266 71.4319 138.352 66.6833 148.063 63.6609L222.611 40.3609C224.109 39.8926 225.712 39.8753 227.22 40.3112C228.727 40.747 230.074 41.6168 231.091 42.8122C232.108 44.0075 232.751 45.4757 232.94 47.0338C233.129 48.5919 232.855 50.1712 232.153 51.5749L215.134 85.6199C227.285 88.6402 238.881 93.5644 249.493 100.21C267.9 82.0682 292.726 71.9295 318.57 71.9999H345C346.333 71.9998 347.645 72.3328 348.816 72.9686C349.988 73.6043 350.982 74.5228 351.708 75.6404C352.435 76.758 352.87 78.0394 352.975 79.3681C353.081 80.6969 352.852 82.0309 352.311 83.2489L330.061 133.319C327.116 139.931 322.619 145.734 316.952 150.237C311.284 154.739 304.614 157.808 297.508 159.182C300.099 166.214 302.023 173.474 303.252 180.866C306.119 198.039 312.475 214.441 321.93 229.061C331.384 243.68 343.735 256.207 358.22 265.866L381.438 281.346C382.674 282.17 383.656 283.322 384.274 284.673C384.892 286.024 385.122 287.52 384.938 288.994L376.938 352.994C376.742 354.56 376.088 356.033 375.057 357.228C374.026 358.423 372.664 359.286 371.144 359.709L297 380.327C296.931 380.347 296.86 380.365 296.79 380.383L263.7 389.578C238.839 396.493 213.155 399.999 187.35 400H186.71C174.612 399.999 162.526 399.25 150.521 397.759L108.913 392.552L98.159 408.683C144.205 440.303 200.403 453.581 255.732 445.912C311.061 438.244 361.529 410.182 397.24 367.23C432.95 324.278 451.326 269.535 448.764 213.735C446.202 157.936 422.888 105.107 383.392 65.6079V65.6079Z" fill="#CDCDCD" fill-opacity="0.38"/>
<path d="M315.439 126.821L332.69 87.9998H318.57C297.849 87.9437 277.874 95.7255 262.652 109.784C274.054 119.295 283.544 130.886 290.619 143.94C295.93 143.642 301.055 141.887 305.434 138.867C309.812 135.847 313.274 131.679 315.439 126.821V126.821Z" fill="#CDCDCD" fill-opacity="0.38"/>
</svg>
